<svg width="219" height="203" viewBox="0 0 219 203" fill="none" xmlns="http://www.w3.org/2000/svg">
<path d="M208 1.01221L208.197 1.57694C208.442 2.12936 207.62 2.38712 206.588 2.15387C205.557 1.92063 205.557 1.98205 205.312 3.41834C205.066 4.85464 205.876 4.70732 205.312 4.95284C204.293 5.31133 203.207 5.44125 202.132 5.3334C200.696 5.25974 201.654 6.21727 201.175 7.24845C200.696 8.27964 200.082 9.5318 198.646 10.0965C197.21 10.6612 197.566 11.5205 196.682 13.1164C195.822 14.7123 194.865 15.3507 193.441 15.1911C192.017 15.0315 192.397 13.6934 191.207 12.6499C190.016 11.6065 189.611 12.0729 188.334 12.1589C187.057 12.2448 186.37 12.343 185.351 11.4714C184.308 10.5875 182.527 12.0116 181.177 12.7359C179.814 13.4479 180.87 14.3195 180.625 15.0315C180.379 15.7435 180.072 15.8908 179.36 16.6028C178.648 17.3148 175.064 19.4877 174.106 19.4017C172.828 19.3317 171.547 19.3727 170.276 19.5245C168.606 19.6718 168.287 20.2979 167.244 20.9363C166.213 21.5746 163.831 20.9362 159.841 20.0523C155.864 19.1807 156.478 19.1685 155.127 18.2969C153.777 17.413 154.649 18.702 154.17 19.9787C153.691 21.2554 152.132 21.8078 151.175 22.127C150.229 22.4462 150.143 22.4339 150.143 22.4339C150.143 22.4339 150.855 23.5756 151.42 24.926C151.972 26.2763 151.003 26.0062 150.524 26.7305C150.057 27.4425 150.07 28.1545 149.259 29.1121C148.474 30.0573 148.768 30.1801 148.695 31.2849C148.609 32.4021 148.474 34.0102 148.155 34.0102C147.835 34.0102 146.866 33.5314 146.387 33.0527C145.908 32.5739 144.545 32.6476 144.545 33.2859C144.545 33.9243 144.705 36.3917 144.705 36.3917C144.705 36.3917 143.502 36.8582 142.618 36.8582C141.759 36.8582 140.568 35.5079 140.323 34.5503C140.102 33.5928 138.027 32.9544 137.069 32.5493C136.112 32.1442 134.074 31.825 133.35 30.7079C133.167 30.3821 133.034 30.0302 132.957 29.6645C131.68 29.419 129.863 28.9402 129.151 28.8542C128.108 28.7315 126.819 27.553 124.204 27.418C121.602 27.2952 120.681 27.5407 120.3 28.2036C119.895 28.8543 120.165 30.4133 118.606 30.9412C117.035 31.4568 116.9 32.8931 115.734 33.6788C114.555 34.4522 114.69 34.3294 113.131 34.4522C111.56 34.5749 110.259 36.2935 110.259 38.2331C110.259 40.1973 111.695 40.4428 112.088 41.7563C112.316 42.7027 112.25 43.6961 111.899 44.6042C111.548 45.5122 110.929 46.2916 110.123 46.8386C108.037 48.3977 106.613 49.3184 106.735 50.6197C106.858 51.9209 108.564 52.056 111.953 52.3138C115.341 52.5716 116.642 52.191 116.777 52.7066C116.9 53.2222 115.856 57.261 114.948 57.9239C114.04 58.5623 113.512 59.6057 113.512 59.6057L112.075 60.3913C110.909 61.042 110.136 61.5699 108.822 61.5699C107.509 61.5699 106.993 60.7842 105.962 63.1289C104.918 65.4614 104.391 66.6522 103.752 67.045C103.089 67.4256 101.665 66.382 99.5784 66.0015C97.4915 65.6087 92.4092 67.3028 91.6235 67.8184C90.8379 68.3463 89.7944 66.9099 88.7509 66.9099C87.7075 66.9099 84.3316 66.3821 83.0181 67.9534C81.7168 69.5125 81.5817 70.2858 81.2012 72.1272C80.7961 73.9441 82.1096 74.5947 80.0227 74.0791C77.9358 73.5513 74.032 73.4285 73.5164 72.9006C72.9885 72.385 69.9932 70.691 68.9497 70.5682C67.9062 70.4209 66.9855 69.7702 66.3349 70.6909C65.6843 71.5994 65.5493 72.3851 64.3708 72.25C63.2536 72.1273 62.8362 71.2679 62.0015 69.7948C62.5767 71.2924 62.7213 72.9211 62.4188 74.4966C62.2961 75.3068 61.67 75.6259 62.5416 76.5098C63.4255 77.3936 63.2414 77.0008 63.7079 77.7619C64.1866 78.5108 66.0034 79.2351 66.0648 79.677C66.1262 80.1189 66.9487 80.3767 67.538 80.745C68.1518 81.1133 69.895 81.7271 70.2755 82.4391C70.6438 83.1757 70.0545 84.0841 70.3983 84.9925C70.742 85.901 72.6939 87.8774 73.2954 88.3193C73.8969 88.7612 75.5297 89.8292 75.8366 90.087C76.1557 90.3326 76.5731 89.8539 76.8186 91.1428C77.0642 92.4318 77.4324 94.1013 77.0887 94.4819C76.745 94.8502 75.8365 95.4148 75.4314 96.0778C75.0263 96.7407 74.8299 97.2195 75.1491 97.8087C75.4683 98.4102 75.812 99.0363 76.5609 99.38C77.322 99.7237 80.4892 101.197 81.5572 101.639C82.6252 102.081 83.2267 102.302 83.5091 102.928C83.7792 103.566 84.2948 105.727 83.9756 106.107C83.3129 106.89 82.5634 107.594 81.7413 108.206C81.2135 108.452 79.8631 108.906 79.8017 109.495C79.7403 110.085 81.459 112.294 81.4344 113.301C81.4099 114.308 81.7045 116.186 81.3117 117.45C80.8943 118.703 79.6421 119.439 80.8329 121.317C82.0359 123.208 83.0672 122.692 83.6319 123.38C84.1965 124.079 84.5771 124.546 84.884 124.73C85.2032 124.926 86.2712 125.074 87.1551 124.264C88.0389 123.441 91.2675 122.287 92.0286 121.784C92.7652 121.28 93.4281 120.495 94.226 120.753C95.0117 120.998 96.1043 121.342 96.804 121.808C97.4915 122.287 98.4613 123.858 98.2035 124.202C97.958 124.546 97.0741 125.798 96.6076 126.24C96.1411 126.682 94.6557 126.657 95.159 127.885C95.6623 129.113 96.5094 130.266 96.7058 131.077C96.9022 131.887 96.583 134.882 96.1411 135.987C95.6992 137.092 95.2204 138.209 95.5027 138.872C95.7851 139.535 96.2884 140.566 96.2025 140.885C96.1166 141.204 96.0797 142.653 95.1958 143.746C94.4875 144.568 93.9043 145.491 93.4649 146.483C93.244 147.146 93.0598 148.742 93.5877 148.803C94.1156 148.865 95.159 149.368 96.1043 148.202C97.0495 147.048 97.5529 146.569 98.0562 146.569C98.5472 146.569 100.376 147.919 100.818 148.607C101.26 149.307 101.604 149.343 101.641 150.313C101.665 151.295 102.107 155.248 100.781 156.206C99.4679 157.188 98.2771 157.789 97.8966 158.698C97.5283 159.606 96.9881 163.608 96.9145 164.738C96.8654 165.867 96.5708 166.702 95.3432 167.622C94.1156 168.543 93.3053 168.482 92.9616 169.599C92.6179 170.741 92.8389 172.177 93.5632 173.061C94.2752 173.945 95.5028 174.313 95.601 175.541C95.6992 176.768 95.7974 178.867 94.8767 179.407C93.9682 179.935 93.4035 180.021 93.0353 180.917C92.6547 181.789 93.2808 182.673 93.7473 183.336C94.2261 183.999 95.4414 185.717 95.4414 186.663C95.3849 187.863 95.0029 189.026 94.3365 190.026C93.6491 191.033 92.1268 193.464 92.1268 194.102C92.2227 194.97 92.4721 195.813 92.8634 196.594C93.023 196.68 95.0976 195.563 96.1779 197.036C97.2337 198.509 96.1411 199.798 98.3017 200.142C100.475 200.485 101.358 201.001 102.476 201.173C103.617 201.369 105.753 201.971 106.478 201.75C107.202 201.529 111.781 198.165 112.603 197.821C113.426 197.478 118.164 194.458 119.257 193.39C120.362 192.322 125.395 189.805 126.009 189.805C126.647 189.805 130.158 189.646 130.735 187.731C131.3 185.816 131.386 181.507 131.729 180.635C132.085 179.751 132.392 172.68 132.355 171.956C132.331 171.232 134.369 166.653 134.369 166.653C134.369 166.653 138.211 163.547 139.34 163.252C140.47 162.982 142.974 163.252 144.803 163.166C146.632 163.08 149.051 161.656 150.487 161.079C151.936 160.527 157.816 160.711 159.449 160.49C161.081 160.269 166.397 160.048 166.961 159.324C167.526 158.6 168.803 157.888 167.956 156.66C167.109 155.432 166.556 153.333 164.347 151.443C162.149 149.552 161.179 149.307 161.044 148.496C160.922 147.674 163.622 139.694 164.568 138.884C165.513 138.074 168.054 135.607 169.183 134.416C170.325 133.225 173.738 129.8 173.775 128.658C173.812 127.529 172.707 126.338 172.486 125.589C172.265 124.841 175.886 119.132 176.942 119.132C178.01 119.132 180.968 118.678 181.951 119.132C182.92 119.623 188.641 120.212 189.832 120.053C191.022 119.893 197.909 118.297 198.941 117.475C199.984 116.665 200.917 116.947 199.567 115.179C198.216 113.411 197.971 109.68 197.934 108.182C197.934 107.691 198.008 106.586 198.081 105.309C197.197 104.917 195.921 102.228 195.921 102.228C194.681 102.842 193.183 104.217 192.287 102.879C191.354 101.479 193.159 100.301 194.448 98.3734C195.933 96.1391 193.834 96.2865 195.626 96.2865C195.626 96.2865 197.271 98.091 198.241 100.46C198.204 99.3555 198.081 98.4716 197.811 98.1279C196.866 96.9249 196.436 92.7509 196.498 92.0021C196.559 91.2533 197.504 86.9321 197.124 85.901C196.743 84.8698 196.117 81.7271 195.356 80.0576C194.607 78.388 193.195 75.0612 193.392 74.5333C193.505 74.2854 193.645 74.0507 193.809 73.8336C192.552 73.4848 191.359 72.9377 190.274 72.2132C187.008 70.1262 188.494 70.1385 188.494 70.1385C188.494 70.1385 190.274 69.8439 190.581 67.4623C190.642 66.8731 190.851 66.6276 191.108 66.603C191.906 66.5171 193.244 68.3585 193.244 68.3585C193.244 68.3585 193.944 68.2235 194.668 68.2112C194.251 67.4747 193.883 67.0818 193.76 66.7012C193.576 66.1365 193.723 62.3432 194.484 61.8645C195.233 61.398 196.056 56.463 196.24 55.9597C196.424 55.4564 197.124 51.0247 198.977 50.4355C200.819 49.8217 203.249 49.0851 204.011 47.9803C204.747 46.8755 207.62 43.0208 207.767 42.6034C207.914 42.186 207.767 39.2766 207.276 38.7979C206.76 38.3314 204.502 35.7288 204.575 35.2255C204.649 34.7222 204.661 34.9432 206.257 34.2434C207.865 33.556 212.677 30.1065 212.886 29.0016C213.107 27.8968 214.151 24.6068 214.151 24.6068C214.151 24.6068 217.514 20.7398 217.539 19.414C217.576 18.1005 217.698 12.0606 217.514 11.5328C217.33 10.9926 217.109 7.00298 215.255 4.98971C213.389 2.98872 212.984 2.79228 211.45 1.98207C210.64 1.55241 209.265 1.22097 208.013 1L208 1.01221ZM195.933 71.1084L195.896 71.2925C195.926 71.2316 195.939 71.1637 195.933 71.0961V71.1084Z" fill="#FCFCFC" stroke="#1B0303"/>
<path d="M1.78566 26.6338L1 27.1249C1 27.1249 3.98306 32.1335 4.15493 32.3667C4.32679 32.6 9.81419 47.5399 10.5753 48.5342C11.3364 49.5163 15.9399 55.1142 17.1675 55.7648C18.3951 56.4155 20.4329 57.3975 22.0043 59.5581C23.9499 61.9364 26.0149 64.2145 28.1914 66.3836C28.486 66.6782 29.0016 68.5442 29.7013 70.3488C30.4134 72.1533 31.3463 76.0694 31.3463 76.0694C31.3463 76.0694 35.4833 82.011 36.134 83.8278C36.7723 85.6324 38.1595 88.0876 38.7488 89.1434C39.338 90.1991 40.5042 92.642 40.2219 94.3361C39.915 96.0179 39.8045 97.4788 40.4429 98.3504C41.0812 99.222 40.7989 101.382 41.6091 103.433C42.4316 105.47 43.6469 109.448 44.408 110.602C45.1691 111.768 47.8453 116.556 48.2627 117.489C48.6678 118.422 49.7849 118.299 50.767 118.544C51.7613 118.778 53.345 121.11 53.345 121.81C53.345 122.497 52.989 124.376 51.8227 123.97C50.6565 123.553 50.0795 123.271 49.7235 123.553C49.3675 123.848 50.0673 128.93 51.5281 131.962C52.617 134.337 53.5719 136.772 54.3884 139.254C54.4498 139.426 54.9163 147.074 55.4933 148.989C56.0825 150.916 56.3158 154.071 57.4206 155.299C58.5255 156.526 59.2252 157.57 58.9428 158.859C58.6482 160.136 58.0098 162.296 59.7039 164.273C61.1995 165.962 62.5466 167.778 63.7305 169.699C64.2461 170.754 63.6691 173.259 65.535 175.076C67.5591 176.94 69.6994 178.675 71.9431 180.268C72.1887 180.33 78.0198 186.099 80.0576 186.455C82.1077 186.799 82.746 186.799 83.1511 187.855C83.5563 188.911 82.5619 190.359 83.5562 191.354C84.5506 192.336 88.6385 196.718 89.9766 197.074C91.327 197.418 93.1807 196.718 93.1807 196.718L93.7577 196.399C93.3034 196.497 92.9352 196.632 92.8738 196.595C92.4754 195.82 92.2176 194.981 92.1126 194.116C92.1126 193.453 93.6471 191.034 94.3346 190.028C95.001 189.027 95.3829 187.865 95.4395 186.664C95.4395 185.719 94.2119 184 93.7454 183.337C93.2789 182.674 92.6405 181.791 93.0333 180.919C93.4016 180.035 93.9663 179.937 94.8747 179.409C95.7954 178.869 95.6972 176.77 95.6113 175.542C95.5254 174.314 94.2732 173.946 93.5612 173.062C93.197 172.573 92.952 172.005 92.8454 171.404C92.7389 170.803 92.7738 170.185 92.9474 169.6C93.3157 168.471 94.1259 168.545 95.3535 167.636C96.5811 166.728 96.8635 165.868 96.9126 164.739C96.9862 163.61 97.5264 159.608 97.8947 158.699C98.2629 157.791 99.466 157.189 100.78 156.219C102.105 155.237 101.663 151.285 101.639 150.315C101.602 149.333 101.258 149.308 100.816 148.621C100.374 147.921 98.5576 146.583 98.0543 146.583C97.5509 146.583 97.0476 147.037 96.0901 148.203C95.1571 149.37 94.1259 148.866 93.5858 148.817C93.0579 148.743 93.242 147.135 93.463 146.485C93.684 145.822 94.3223 144.852 95.1816 143.747C96.0778 142.642 96.1024 141.206 96.2006 140.887C96.2988 140.568 95.7832 139.536 95.5008 138.886C95.2308 138.211 95.6972 137.081 96.1392 135.989C96.5688 134.884 96.888 131.901 96.7039 131.078C96.5197 130.256 95.6604 129.114 95.1571 127.886C94.6661 126.659 96.1392 126.683 96.6057 126.254C97.0722 125.824 97.956 124.547 98.2016 124.204C98.4594 123.86 97.4895 122.289 96.7898 121.81C96.0901 121.331 94.9975 121 94.2119 120.754C93.4262 120.496 92.7756 121.282 92.0144 121.785C91.2656 122.289 88.0247 123.443 87.1531 124.265C86.2693 125.075 85.189 124.928 84.8821 124.732C84.3992 124.347 83.977 123.892 83.6299 123.381C83.0652 122.694 82.034 123.197 80.831 121.319C79.6279 119.441 80.8924 118.704 81.3097 117.452C81.7149 116.2 81.3957 114.309 81.4325 113.303C81.4693 112.296 79.7384 110.098 79.7998 109.497C79.8612 108.895 81.2115 108.466 81.7394 108.208C82.2796 107.962 83.6545 106.489 83.9737 106.109C84.2928 105.741 83.7895 103.568 83.5072 102.929C83.2248 102.316 82.6233 102.082 81.5553 101.64C80.4873 101.198 77.32 99.7252 76.5589 99.3815C75.8101 99.0378 75.4541 98.3995 75.1472 97.8102C74.828 97.221 75.0244 96.7422 75.4295 96.0916C75.8346 95.4164 76.7431 94.864 77.0991 94.4834C77.4428 94.1151 77.0622 92.4333 76.8167 91.1444C76.5712 89.8554 76.1538 90.3341 75.8346 90.0886C75.5277 89.8308 73.895 88.7627 73.2935 88.3208C72.692 87.8789 70.7401 85.9025 70.4086 84.9941C70.0526 84.0856 70.6541 83.1649 70.2859 82.4406C69.9053 81.7286 68.1376 81.1271 67.536 80.7465C66.9468 80.3782 66.1243 80.1327 66.0629 79.6785C66.0015 79.2366 64.1847 78.5246 63.7059 77.7635C63.2394 77.0146 63.4236 77.3952 62.552 76.5113C61.6681 75.6274 62.3065 75.3083 62.4292 74.4981C62.5621 73.6326 62.5786 72.7532 62.4783 71.8833C62.4024 71.1699 62.2374 70.4687 61.9873 69.7963L61.9014 69.649C60.9929 68.09 59.5689 65.2297 57.0769 65.3524C54.6094 65.4752 53.9588 63.9161 53.701 62.087C53.4309 60.2578 51.6141 58.8339 50.4356 59.6072C49.2571 60.3929 46.7896 60.9084 45.3533 60.3929C43.917 59.8773 41.9651 60.6507 41.9651 58.8339C41.9651 57.017 43.0085 56.0963 41.1794 55.5684C39.3626 55.0528 37.914 56.219 35.8394 54.66C33.7524 53.1009 33.3596 52.1803 32.4512 51.014C31.5427 49.8478 30.622 48.1414 28.928 46.8402C27.2339 45.5389 25.9326 46.5824 25.9326 44.6305C25.9326 42.6663 25.5398 40.1866 25.282 39.2782C25.0242 38.3697 24.1158 39.1554 23.1951 38.1119C22.2866 37.0685 22.4094 36.1478 22.2866 35.3744C22.1639 34.5887 21.501 33.6803 20.8503 34.1959C20.1997 34.7237 19.5491 35.4971 19.0212 34.8465C18.4933 34.1958 18.8984 34.0608 18.1128 33.4225C17.3271 32.7718 17.3271 32.379 16.0259 31.8511C14.7246 31.3355 14.074 31.7284 13.4233 30.8077C12.7727 29.8992 12.3799 27.6773 11.3364 27.5545C10.2929 27.4317 5.8613 28.598 5.07563 28.598C4.28996 28.598 2.0803 27.1617 2.0803 27.1617L1.78566 26.6338ZM37.1652 76.4376C37.5457 76.4008 37.9017 76.4499 38.1227 76.7568C38.2185 76.8568 38.3306 76.9398 38.4541 77.0023L38.8838 77.2479C39.1907 77.4198 39.4485 77.5916 39.4117 77.8125C39.3871 77.9271 39.3135 78.0417 39.1907 78.1563C38.9452 78.4018 38.6015 78.6474 38.4664 78.7947C38.4337 78.8274 38.4173 78.856 38.4173 78.8805C38.4173 78.9051 38.4378 78.9215 38.4787 78.9297C39.2398 79.0852 39.6981 79.2898 39.8536 79.5435L39.9273 79.7276L39.915 79.9363L39.8168 80.145L39.6572 80.366C39.5936 80.4319 39.5128 80.4786 39.424 80.501C39.1784 80.5869 38.8347 80.4887 38.5033 80.415C38.0613 80.3168 37.6316 80.2677 37.3616 80.7342C37.0915 81.213 37.0792 81.7164 37.0178 82.011C36.9565 82.3056 36.8337 82.3793 36.3427 82.011C35.7289 81.5199 35.913 81.1885 35.7534 80.8447L35.5938 80.6361C35.3718 80.431 35.1137 80.2687 34.8327 80.1573C33.2368 79.4698 34.3785 78.7701 34.3785 78.7701L35.9744 78.1563L35.8516 77.6284C35.8148 77.3461 35.778 77.0514 35.8516 76.9655C35.9901 76.8687 36.1382 76.7864 36.2936 76.72L36.7109 76.5604L37.1652 76.4376Z" fill="#FCFCFC"/>
<path d="M62.5397 70.7293L62.7484 71.0485M66.2839 70.7661C66.0384 71.1671 65.8174 71.5027 65.621 71.7728M63.0798 71.5149L63.1535 71.6132M63.3376 71.7973L63.4604 71.8956M65.5473 71.871L65.4246 71.9937M63.6445 72.0183L63.7919 72.0919M1.78566 26.6338L1 27.1249C1 27.1249 3.98306 32.1335 4.15493 32.3667C4.32679 32.6 9.81419 47.5399 10.5753 48.5342C11.3364 49.5163 15.9399 55.1142 17.1675 55.7648C18.3951 56.4155 20.4329 57.3975 22.0043 59.5581C23.9499 61.9364 26.0149 64.2145 28.1914 66.3836C28.486 66.6782 29.0016 68.5442 29.7013 70.3488C30.4134 72.1533 31.3463 76.0694 31.3463 76.0694C31.3463 76.0694 35.4833 82.011 36.134 83.8278C36.7723 85.6324 38.1595 88.0876 38.7488 89.1434C39.338 90.1991 40.5042 92.642 40.2219 94.3361C39.915 96.0179 39.8045 97.4788 40.4429 98.3504C41.0812 99.222 40.7989 101.382 41.6091 103.433C42.4316 105.47 43.6469 109.448 44.408 110.602C45.1691 111.768 47.8453 116.556 48.2627 117.489C48.6678 118.422 49.7849 118.299 50.767 118.544C51.7613 118.778 53.345 121.11 53.345 121.81C53.345 122.497 52.989 124.376 51.8227 123.97C50.6565 123.553 50.0795 123.271 49.7235 123.553C49.3675 123.848 50.0673 128.93 51.5281 131.962C52.617 134.337 53.5719 136.772 54.3884 139.254C54.4498 139.426 54.9163 147.074 55.4933 148.989C56.0825 150.916 56.3158 154.071 57.4206 155.299C58.5255 156.526 59.2252 157.57 58.9428 158.859C58.6482 160.136 58.0098 162.296 59.7039 164.273C61.1995 165.962 62.5466 167.778 63.7305 169.699C64.2461 170.754 63.6691 173.259 65.535 175.076C67.5591 176.94 69.6994 178.675 71.9431 180.268C72.1887 180.33 78.0198 186.099 80.0576 186.455C82.1077 186.799 82.746 186.799 83.1511 187.855C83.5563 188.911 82.5619 190.359 83.5562 191.354C84.5506 192.336 88.6385 196.718 89.9766 197.074C91.327 197.418 93.1807 196.718 93.1807 196.718L93.7577 196.399C93.3034 196.497 92.9352 196.632 92.8738 196.595C92.4754 195.82 92.2176 194.981 92.1126 194.116C92.1126 193.453 93.6471 191.034 94.3346 190.028C95.001 189.027 95.3829 187.865 95.4395 186.664C95.4395 185.719 94.2119 184 93.7454 183.337C93.2789 182.674 92.6405 181.791 93.0333 180.919C93.4016 180.035 93.9663 179.937 94.8747 179.409C95.7954 178.869 95.6972 176.77 95.6113 175.542C95.5254 174.314 94.2732 173.946 93.5612 173.062C93.197 172.573 92.952 172.005 92.8454 171.404C92.7389 170.803 92.7738 170.185 92.9474 169.6C93.3157 168.471 94.1259 168.545 95.3535 167.636C96.5811 166.728 96.8635 165.868 96.9126 164.739C96.9862 163.61 97.5264 159.608 97.8947 158.699C98.2629 157.791 99.466 157.189 100.779 156.219C102.105 155.237 101.663 151.285 101.639 150.315C101.602 149.333 101.258 149.308 100.816 148.621C100.374 147.921 98.5576 146.583 98.0543 146.583C97.5509 146.583 97.0476 147.037 96.0901 148.203C95.1571 149.37 94.1259 148.866 93.5858 148.817C93.0579 148.743 93.242 147.135 93.463 146.485C93.684 145.822 94.3223 144.852 95.1816 143.747C96.0778 142.642 96.1024 141.206 96.2006 140.887C96.2988 140.568 95.7832 139.536 95.5008 138.886C95.2308 138.211 95.6972 137.081 96.1392 135.989C96.5688 134.884 96.888 131.901 96.7039 131.078C96.5197 130.256 95.6604 129.114 95.1571 127.886C94.6661 126.659 96.1392 126.683 96.6057 126.254C97.0721 125.824 97.956 124.547 98.2016 124.204C98.4594 123.86 97.4895 122.289 96.7898 121.81C96.0901 121.331 94.9975 121 94.2119 120.754C93.4262 120.496 92.7756 121.282 92.0144 121.785C91.2656 122.289 88.0247 123.443 87.1531 124.265C86.2693 125.075 85.189 124.928 84.8821 124.732C84.3992 124.347 83.977 123.892 83.6299 123.381C83.0652 122.694 82.034 123.197 80.831 121.319C79.6279 119.441 80.8924 118.704 81.3097 117.452C81.7149 116.2 81.3957 114.309 81.4325 113.303C81.4693 112.296 79.7384 110.098 79.7998 109.497C79.8612 108.895 81.2115 108.466 81.7394 108.208C82.2796 107.962 83.6545 106.489 83.9737 106.109C84.2928 105.741 83.7895 103.568 83.5072 102.929C83.2248 102.316 82.6233 102.082 81.5553 101.64C80.4873 101.198 77.32 99.7252 76.5589 99.3815C75.8101 99.0378 75.4541 98.3995 75.1472 97.8102C74.828 97.221 75.0244 96.7422 75.4295 96.0916C75.8346 95.4164 76.7431 94.864 77.0991 94.4834C77.4428 94.1151 77.0622 92.4333 76.8167 91.1444C76.5712 89.8554 76.1538 90.3341 75.8346 90.0886C75.5277 89.8308 73.895 88.7627 73.2935 88.3208C72.692 87.8789 70.7401 85.9025 70.4086 84.9941C70.0526 84.0856 70.6541 83.1649 70.2859 82.4406C69.9053 81.7286 68.1376 81.1271 67.536 80.7465C66.9468 80.3782 66.1243 80.1327 66.0629 79.6785C66.0015 79.2366 64.1847 78.5246 63.7059 77.7635C63.2394 77.0146 63.4236 77.3952 62.552 76.5113C61.6681 75.6274 62.3065 75.3083 62.4292 74.4981C62.5621 73.6326 62.5786 72.7532 62.4783 71.8833C62.4024 71.1699 62.2375 70.4687 61.9873 69.7963L61.9014 69.649C60.9929 68.09 59.5689 65.2297 57.0769 65.3524C54.6094 65.4752 53.9588 63.9161 53.701 62.087C53.4309 60.2578 51.6141 58.8339 50.4356 59.6072C49.2571 60.3929 46.7896 60.9084 45.3533 60.3929C43.917 59.8773 41.9651 60.6507 41.9651 58.8338C41.9651 57.017 43.0085 56.0963 41.1794 55.5684C39.3626 55.0528 37.914 56.219 35.8394 54.66C33.7524 53.1009 33.3596 52.1803 32.4512 51.014C31.5427 49.8478 30.622 48.1414 28.928 46.8402C27.2339 45.5389 25.9326 46.5824 25.9326 44.6305C25.9326 42.6663 25.5398 40.1866 25.282 39.2782C25.0242 38.3697 24.1158 39.1554 23.1951 38.1119C22.2866 37.0685 22.4094 36.1478 22.2866 35.3744C22.1639 34.5887 21.501 33.6803 20.8503 34.1959C20.1997 34.7237 19.5491 35.4971 19.0212 34.8465C18.4933 34.1958 18.8984 34.0608 18.1128 33.4225C17.3271 32.7718 17.3271 32.379 16.0259 31.8511C14.7246 31.3355 14.074 31.7284 13.4233 30.8077C12.7727 29.8992 12.3799 27.6773 11.3364 27.5545C10.2929 27.4317 5.8613 28.598 5.07563 28.598C4.28996 28.598 2.0803 27.1617 2.0803 27.1617L1.78566 26.6338ZM37.1652 76.4376C37.5457 76.4008 37.9017 76.4499 38.1227 76.7568C38.2185 76.8568 38.3306 76.9398 38.4541 77.0023L38.8838 77.2479C39.1907 77.4197 39.4485 77.5916 39.4117 77.8125C39.3871 77.9271 39.3135 78.0417 39.1907 78.1563C38.9452 78.4018 38.6015 78.6474 38.4664 78.7947C38.4337 78.8274 38.4173 78.856 38.4173 78.8805C38.4173 78.9051 38.4378 78.9215 38.4787 78.9297C39.2398 79.0852 39.6981 79.2898 39.8536 79.5435L39.9273 79.7276L39.915 79.9363L39.8168 80.145L39.6572 80.366C39.5936 80.4319 39.5128 80.4786 39.424 80.501C39.1784 80.5869 38.8347 80.4887 38.5033 80.415C38.0613 80.3168 37.6316 80.2677 37.3616 80.7342C37.0915 81.213 37.0792 81.7164 37.0178 82.011C36.9565 82.3056 36.8337 82.3793 36.3427 82.011C35.7289 81.5199 35.913 81.1885 35.7534 80.8448L35.5938 80.6361C35.3718 80.431 35.1137 80.2687 34.8327 80.1573C33.2368 79.4698 34.3785 78.7701 34.3785 78.7701L35.9744 78.1563L35.8516 77.6284C35.8148 77.3461 35.778 77.0514 35.8516 76.9655C35.9901 76.8687 36.1382 76.7864 36.2936 76.72L36.7109 76.5604L37.1652 76.4376Z" stroke="#1B0303"/>
</svg>
